# xmcd
#
# Track frame offsets: 
#        150
#        14499
#        33540
#        49552
#        62498
#        77756
#        86778
#        101080
#        109006
#        124701
#        139800
#        165326
#        181303
#
# Disc length: 2781 seconds
#
# Revision: 0
# Processed by: cddbd v1.5.2PL0 Copyright (c) Steve Scherf et al.
# Submitted via: ExactAudioCopy v1.3
#
DISCID=a40adb0d
DTITLE=Marvin Ashby - Hometown Blues
DYEAR=2019
DGENRE=Blues Rock
TTITLE0=It's All Over Now
TTITLE1=The Sky Is Crying
TTITLE2=Move It On Over
TTITLE3=Waitin' For The Bus
TTITLE4=Jesus Just Left Chicago
TTITLE5=Bufflick Road Ride
TTITLE6=Dust My Broom
TTITLE7=Jailhouse Rock
TTITLE8=Crossroads
TTITLE9=Roadhouse Blues
TTITLE10=Sure Got Cold After The Rain Fell
TTITLE11=Brown Sugar
TTITLE12=Waiting For The Bus Jesus Just Left Chicago
EXTD=
EXTT0=
EXTT1=
EXTT2=
EXTT3=
EXTT4=
EXTT5=
EXTT6=
EXTT7=
EXTT8=
EXTT9=
EXTT10=
EXTT11=
EXTT12=
PLAYORDER=
